<svg xmlns="http://www.w3.org/2000/svg" width="73" height="73" viewBox="0 0 73 73">
  <g>
    <path d="M72.5594634,30.803671 C72.4822994,30.3013838 72.1105089,29.9015184 71.6194649,29.7808572 L67.8173816,28.8632712 C65.6132957,28.3343264 63.9998655,27.1080723 63.2955681,25.4033827 C62.5870618,23.7014991 62.8522256,21.6923506 64.0475669,19.7547569 L66.0846979,16.4225447 C66.3456527,15.9974246 66.320399,15.4460311 66.0229666,15.0391505 C63.7683733,11.9412454 61.0620195,9.23057851 57.9600246,6.97449548 C57.5559656,6.6770517 57.0045933,6.65600615 56.5780866,6.9141649 L53.2516144,8.95137421 C52.0394373,9.69358063 50.7697379,10.0808188 49.5715906,10.0808188 C46.9522217,10.0808188 44.8687923,8.20355564 44.1350323,5.18001153 L43.2258994,1.37778205 C43.1038399,0.890928311 42.6969749,0.514914472 42.201722,0.441956564 C38.4473401,-0.147318855 34.5610778,-0.147318855 30.8038899,0.441956564 C30.307234,0.517720546 29.904578,0.890928311 29.7895334,1.37778205 L28.8719826,5.18001153 C28.1438346,8.20355564 26.0561962,10.0808188 23.4354244,10.0808188 C22.23868,10.0808188 20.9689806,9.69358063 19.7554005,8.95137421 L16.4247194,6.9141649 C16.0010186,6.65600615 15.4482434,6.6770517 15.0455873,6.97449548 C11.9463984,9.2263694 9.23443266,11.9370363 6.98545126,15.0391505 C6.68380996,15.4460311 6.66557119,15.9932155 6.92372002,16.4225447 L8.962254,19.7547569 C10.1519834,21.6923506 10.4129382,23.7014991 9.70723785,25.4033827 C9.0029405,27.1080723 7.39933118,28.3343264 5.1896333,28.8632712 L1.384744,29.7808572 C0.897908979,29.9015184 0.520506611,30.3013838 0.444745541,30.803671 C0.152925123,32.6851432 0,34.5974822 0,36.5028061 C0,38.410936 0.152925123,40.3274841 0.444745541,42.2047473 C0.520506611,42.7042283 0.893700031,43.1068999 1.384744,43.2205458 L5.1896333,44.1367288 C7.40213715,44.6698828 9.00714945,45.901749 9.70723785,47.6008264 C10.4101322,49.304113 10.1519834,51.3118585 8.962254,53.2522583 L6.92372002,56.5788584 C6.66557119,57.0081876 6.68801891,57.5553719 6.98545126,57.9580434 C9.23443266,61.0573515 11.9463984,63.7722276 15.0455873,66.0226984 C15.4524523,66.3229483 16.0010186,66.3425908 16.4247194,66.0760138 L19.7554005,64.0458197 C20.9689806,63.3050163 22.23868,62.90936 23.4354244,62.90936 C26.0561962,62.90936 28.1396256,64.7950413 28.8719826,67.8171824 L29.7895334,71.6194119 C29.904578,72.1104747 30.311443,72.4752643 30.8038899,72.5594465 C32.6824839,72.848472 34.5989583,73 36.5084179,73 C38.4080566,73 40.3245311,72.848472 42.201722,72.5594465 C42.7011839,72.4752643 43.1038399,72.1104747 43.2258994,71.6194119 L44.1350323,67.8171824 C44.8687923,64.7950413 46.9522217,62.90936 49.5715906,62.90936 C50.7697379,62.90936 52.0394373,63.3050163 53.2516144,64.0458197 L56.5780866,66.0760138 C57.0088023,66.3425908 57.5559656,66.3229483 57.9600246,66.0226984 C61.0620195,63.7722276 63.7725823,61.0615606 66.0229666,57.9580434 C66.320399,57.5553719 66.3414437,57.0039785 66.0846979,56.5788584 L64.0475669,53.2522583 C62.8564345,51.3090525 62.5870618,49.304113 63.2955681,47.6008264 C63.9956565,45.8975399 65.6090867,44.6698828 67.8173816,44.1367288 L71.6194649,43.2205458 C72.1105089,43.1068999 72.4822994,42.7000192 72.5594634,42.2047473 C72.8484779,40.3274841 73,38.410936 73,36.5028061 C73,34.5974822 72.8484779,32.6851432 72.5594634,30.803671 M70.2136762,41.0009418 L67.2365467,41.7150874 C64.2285517,42.4418605 62.004824,44.1914472 60.9890644,46.6467615 C59.9733049,49.1062848 60.3058118,51.9081491 61.9122271,54.5514703 L63.5186424,57.1639247 C61.6849439,59.5518931 59.5496041,61.6845089 57.1561155,63.5168749 L54.5437615,61.9202191 C52.9457641,60.9423025 51.2257073,60.4217759 49.5673816,60.4217759 C45.7961639,60.4217759 42.7096018,63.0945608 41.7092751,67.2391313 L40.9895449,70.2177782 C38.0208333,70.6050163 34.9763607,70.6050163 32.0020372,70.2177782 L31.28371,67.2391313 C30.2833833,63.0945608 27.1954182,60.4217759 23.4256035,60.4217759 C21.7714868,60.4217759 20.0528329,60.9423025 18.4478206,61.9202191 L15.8354666,63.5168749 C13.4475899,61.6845089 11.3080412,59.5561022 9.48276061,57.1639247 L11.0723401,54.5514703 C12.6913822,51.9081491 13.0196802,49.1062848 12.0039207,46.6467615 C10.9839522,44.1914472 8.76723939,42.4418605 5.76064729,41.7150874 L2.77930889,41.0009418 C2.58148831,39.5109168 2.49169742,38.0082645 2.49169742,36.5028061 C2.49169742,35.008572 2.58148831,33.4946954 2.77930889,32.0116856 L5.76064729,31.2947338 C8.76723939,30.5665578 10.9839522,28.818374 12.0039207,26.3616567 C13.0196802,23.9063425 12.6913822,21.09606 11.0723401,18.461157 L9.48977552,15.8487027 C11.3150561,13.4565251 13.4560078,11.3211032 15.8424815,9.48733423 L18.4562385,11.085393 C20.0598478,12.0703248 21.7785017,12.5908514 23.4312154,12.5908514 C27.2038361,12.5908514 30.2875923,9.90964828 31.2907249,5.77349606 L32.0104551,2.79625216 C34.9805696,2.40480492 38.0250423,2.40480492 40.9979628,2.79625216 L41.71629,5.77349606 C42.7166167,9.91385739 45.8045818,12.5908514 49.5828144,12.5908514 C51.2341252,12.5908514 52.9471671,12.0731309 54.5521794,11.085393 L57.1631304,9.48733423 C59.555216,11.3211032 61.6933618,13.4565251 63.5256573,15.8487027 L61.920645,18.461157 C60.3100208,21.09606 59.9817228,23.9063425 60.9974823,26.3616567 C62.0118389,28.818374 64.2355666,30.5665578 67.2435617,31.2947338 L70.2206911,32.0116856 C70.4157057,33.4946954 70.5209294,35.008572 70.5209294,36.5028061 C70.5125115,38.0082645 70.4030789,39.5109168 70.2136762,41.0009418"/>
    <path d="M59.6838891,37 L45.317514,37 C44.5893034,37 44,36.5527157 44,36 C44,35.4472843 44.5893034,35 45.317514,35 L59.6838891,35 C60.4120997,35 61,35.4472843 61,36 C61,36.5527157 60.4120997,37 59.6838891,37"/>
    <path d="M51.2100378,35.6817661 C51.2237882,35.9545107 51.2499141,36.224429 51.2499141,36.5 C51.2499141,45.1430372 44.4090753,52.1736307 35.9993125,52.1736307 C27.5909247,52.1736307 20.7500859,45.1430372 20.7500859,36.5 C20.7500859,27.8569628 27.5909247,20.8263693 35.9993125,20.8263693 C40.3059471,20.8263693 44.1931935,22.6776411 46.9707803,25.6382629 L49.0622207,23.8067756 C45.7786181,20.2398976 41.1447233,18 35.9993125,18 C26.0742523,18 18,26.2982202 18,36.5 C18,46.7017798 26.0742523,55 35.9993125,55 C45.9257477,55 54,46.7017798 54,36.5 C54,36.224429 53.9724991,35.9545107 53.9601238,35.6817661 L51.2100378,35.6817661 Z"/>
    <path d="M36.5,13.8218109 C23.9947989,13.8218109 13.821889,23.9944394 13.821889,36.5007055 C13.821889,49.0055606 23.9947989,59.1781891 36.5,59.1781891 C49.0052011,59.1781891 59.178111,49.0055606 59.178111,36.5007055 C59.178111,23.9944394 49.0052011,13.8218109 36.5,13.8218109 M36.5,62 C22.4385271,62 11,50.5617894 11,36.5007055 C11,22.4396215 22.4385271,11 36.5,11 C50.5614729,11 62,22.4396215 62,36.5007055 C62,50.5617894 50.5614729,62 36.5,62"/>
    <path d="M53.9344375 20.4110292C53.6349206 20.408214 53.3326432 20.4814109 53.0800552 20.681295L36.3581781 33.8173387 18.9861974 20.2533742C18.7943409 20.1041649 18.5776398 20.0337832 18.3567978 20 17.9786059 20.7558996 17.5272602 21.4709779 17 22.1311584 17.084196 22.2620684 17.1766736 22.3873479 17.3064182 22.4886975L35.5203589 36.7100273C35.7688061 36.9028732 36.0655625 37 36.3609386 37 36.6563147 37 36.9544513 36.9028732 37.2028986 36.7072121L54.7653554 22.9109878C54.863354 22.8321603 54.9282264 22.7308106 55 22.6336839 54.5748792 21.9312743 54.2173913 21.1866358 53.9344375 20.4110292M54.8580999 50.6033494L36.8993959 38.2467353C36.4222222 37.9186714 35.7864543 37.9172988 35.3092806 38.2453626L17.5077796 50.4468671C17.2476295 50.6253119 17.0904265 50.8833705 17 51.1592735 17.6190738 51.6808813 18.1699799 52.2615132 18.6527183 52.8915605 18.8057478 52.8517536 18.9573861 52.7968475 19.0951126 52.7021345L36.1022515 41.0455729 53.2652023 52.8558715C53.3611935 52.9203862 53.4641406 52.9615657 53.5656965 53 53.9566172 52.1983712 54.4351821 51.4434125 55 50.7488506 54.9485265 50.7021804 54.9165294 50.6431564 54.8580999 50.6033494"/>
  </g>
</svg>
