<svg xmlns="http://www.w3.org/2000/svg" width="24" height="20" viewBox="0 0 24 20">
  <path d="M838,1521.36772 C837.117,1521.76866 836.168,1522.0404 835.172,1522.16243 C836.188,1521.53794 836.97,1520.5484 837.337,1519.36916 C836.386,1519.9475 835.332,1520.36792 834.21,1520.59454 C833.313,1519.61321 832.032,1519 830.616,1519 C827.438,1519 825.102,1522.04143 825.819,1525.19873 C821.728,1524.98852 818.1,1522.97867 815.671,1519.92391 C814.381,1522.19319 815.002,1525.16181 817.194,1526.66509 C816.388,1526.63843 815.628,1526.41181 814.965,1526.03343 C814.911,1528.37244 816.546,1530.55968 818.914,1531.04779 C818.221,1531.24057 817.462,1531.28466 816.69,1531.13392 C817.316,1533.13966 819.135,1534.59988 821.29,1534.64089 C819.22,1536.30414 816.612,1537.04758 814,1536.73175 C816.179,1538.16325 818.768,1539 821.548,1539 C830.689,1539 835.854,1531.08265 835.543,1523.98052 C836.505,1523.26887 837.34,1522.37982 838,1521.36772" transform="translate(-814 -1519)"/>
</svg>
